name C:\Users\u0101727\Documents\MyRepositories\upper-imu-dc\Results\main_tracking\Case_31\FLX01_angularVelocities_bodyFrame.mot
datacolumns 4
datarows 129
range 5.01000000 6.29000000
endheader 
time	radius_imu_x	radius_imu_y	radius_imu_z	
          5.01000000	          1.32846865	         -0.24176828	          0.58590521	
          5.02000000	          1.26344588	         -0.17296811	          0.70986353	
          5.03000000	          1.19419890	         -0.11014665	          0.83972635	
          5.04000000	          1.13738191	         -0.04357027	          0.97724055	
          5.05000000	          1.07913886	         -0.01325368	          1.11853333	
          5.06000000	          1.00530497	         -0.06565260	          1.26402276	
          5.07000000	          0.94582766	         -0.12060071	          1.41789250	
          5.08000000	          0.88874751	         -0.18226623	          1.57524866	
          5.09000000	          0.83406598	         -0.22076677	          1.73553253	
          5.10000000	          0.78163217	         -0.21655326	          1.89789753	
          5.11000000	          0.73222065	         -0.15942826	          2.06144704	
          5.12000000	          0.68715973	         -0.05156518	          2.22514315	
          5.13000000	          0.64793206	          0.09674275	          2.38781514	
          5.14000000	          0.61577825	          0.27368348	          2.54819563	
          5.15000000	          0.59133038	          0.47167207	          2.70494366	
          5.16000000	          0.57438223	          0.68926955	          2.85666849	
          5.17000000	          0.56386786	          0.92928701	          3.00193646	
          5.18000000	          0.55801268	          1.19498964	          3.13923213	
          5.19000000	          0.55461669	          1.48595720	          3.26689991	
          5.20000000	          0.55145944	          1.79471350	          3.38311747	
          5.21000000	          0.54673269	          2.10575435	          3.48589469	
          5.22000000	          0.53934273	          2.39792977	          3.57305423	
          5.23000000	          0.52898959	          2.64911759	          3.64218400	
          5.24000000	          0.51602992	          2.84121649	          3.69058525	
          5.25000000	          0.50118004	          2.96408481	          3.71525451	
          5.26000000	          0.48516475	          3.01724614	          3.71294537	
          5.27000000	          0.46849876	          3.00886203	          3.68034829	
          5.28000000	          0.45151350	          2.95216844	          3.61438942	
          5.29000000	          0.43465345	          2.86083001	          3.51258255	
          5.30000000	          0.41891138	          2.74524702	          3.37337619	
          5.31000000	          0.40625642	          2.61090957	          3.19645894	
          5.32000000	          0.39993286	          2.45861821	          2.98298805	
          5.33000000	          0.40446797	          2.28585278	          2.73569396	
          5.34000000	          0.42565049	          2.08875620	          2.45883100	
          5.35000000	          0.47076009	          1.86512288	          2.15824795	
          5.36000000	          0.54421432	          1.61234919	          1.83927978	
          5.37000000	          0.62993292	          1.32263443	          1.51663509	
          5.38000000	          0.76901716	          1.02112618	          1.17682286	
          5.39000000	          0.89756616	          0.68065263	          0.84998709	
          5.40000000	          1.03294311	          0.29646341	          0.52103534	
          5.41000000	          1.14270166	         -0.13918985	          0.20481008	
          5.42000000	          1.23223205	         -0.52374329	         -0.09736889	
          5.43000000	          1.31559533	         -0.86046636	         -0.36474054	
          5.44000000	          1.40570917	         -1.14504674	         -0.57957676	
          5.45000000	          1.52117007	         -1.37471325	         -0.73302550	
          5.46000000	          1.57697846	         -1.64350169	         -0.83668180	
          5.47000000	          1.61306954	         -1.75089173	         -0.91443913	
          5.48000000	          1.60374869	         -1.89503024	         -0.96895031	
          5.49000000	          1.56936070	         -2.01000546	         -0.99400004	
          5.50000000	          1.52387902	         -2.11374265	         -0.98995891	
          5.51000000	          1.50239659	         -2.17694664	         -0.95852995	
          5.52000000	          1.47338305	         -2.26130076	         -0.91901693	
          5.53000000	          1.48766348	         -2.20796024	         -0.86274954	
          5.54000000	          1.51653363	         -2.14118322	         -0.81039396	
          5.55000000	          1.53947437	         -2.05169412	         -0.76248188	
          5.56000000	          1.55293338	         -1.99416319	         -0.73174744	
          5.57000000	          1.55388239	         -1.97112330	         -0.71316568	
          5.58000000	          1.55017222	         -1.92808716	         -0.70674948	
          5.59000000	          1.54396354	         -1.84268412	         -0.71237241	
          5.60000000	          1.53545424	         -1.69909630	         -0.72962273	
          5.61000000	          1.52405482	         -1.49093390	         -0.75735438	
          5.62000000	          1.50921264	         -1.21986394	         -0.79353145	
          5.63000000	          1.49078105	         -0.89584806	         -0.83510358	
          5.64000000	          1.46903645	         -0.53788693	         -0.87803804	
          5.65000000	          1.44444708	         -0.17493833	         -0.91747793	
          5.66000000	          1.41726979	          0.15447529	         -0.94807833	
          5.67000000	          1.38710582	          0.40551660	         -0.96454955	
          5.68000000	          1.35277645	          0.53456093	         -0.96238304	
          5.69000000	          1.31281324	          0.51008491	         -0.93857235	
          5.70000000	          1.26810700	          0.32970269	         -0.89250173	
          5.71000000	          1.22297391	          0.03971700	         -0.82693789	
          5.72000000	          1.19990148	         -0.18696147	         -0.75420845	
          5.73000000	          1.16093014	         -0.36284389	         -0.68427810	
          5.74000000	          1.14378896	         -0.34068591	         -0.61235273	
          5.75000000	          1.12221440	         -0.22226631	         -0.54110965	
          5.76000000	          1.07119225	         -0.14404700	         -0.46114918	
          5.77000000	          1.02938301	          0.02340854	         -0.37123050	
          5.78000000	          0.97288200	          0.25737397	         -0.28316988	
          5.79000000	          0.91947418	          0.68839153	         -0.19812566	
          5.80000000	          0.85866026	          1.13646739	         -0.11027038	
          5.81000000	          0.79077009	          1.50887819	         -0.01628984	
          5.82000000	          0.72768376	          1.97105451	          0.07609411	
          5.83000000	          0.64798202	          2.33195211	          0.17028278	
          5.84000000	          0.54807532	          2.40817301	          0.26986852	
          5.85000000	          0.44114805	          2.28410328	          0.37348464	
          5.86000000	          0.35289624	          2.23301653	          0.46838498	
          5.87000000	          0.30039956	          2.51672363	          0.54379996	
          5.88000000	          0.24891033	          2.78510290	          0.61202105	
          5.89000000	          0.18341203	          2.74012739	          0.68077642	
          5.90000000	          0.11098177	          2.53942987	          0.74183900	
          5.91000000	          0.04970648	          2.43676987	          0.78139719	
          5.92000000	          0.00172408	          2.48834052	          0.81331669	
          5.93000000	         -0.03376575	          2.61906508	          0.83043328	
          5.94000000	         -0.06218349	          2.79361819	          0.83550937	
          5.95000000	         -0.08886205	          2.98712233	          0.83082483	
          5.96000000	         -0.11763416	          3.18389696	          0.81832872	
          5.97000000	         -0.15078961	          3.37146692	          0.79988958	
          5.98000000	         -0.18940371	          3.53983648	          0.77729701	
          5.99000000	         -0.23392963	          3.68098944	          0.75237628	
          6.00000000	         -0.28480738	          3.78934701	          0.72714417	
          6.01000000	         -0.34293983	          3.85740800	          0.70425395	
          6.02000000	         -0.40920101	          3.88627185	          0.68628076	
          6.03000000	         -0.48465543	          3.80005422	          0.68039479	
          6.04000000	         -0.56134137	          3.57097581	          0.69897257	
          6.05000000	         -0.61236164	          3.57944115	          0.69696755	
          6.06000000	         -0.63528833	          3.92362447	          0.67911709	
          6.07000000	         -0.65074013	          4.19603356	          0.65832132	
          6.08000000	         -0.66703175	          4.31448696	          0.64376768	
          6.09000000	         -0.68208969	          4.35757958	          0.63041043	
          6.10000000	         -0.69349596	          4.33393300	          0.61883871	
          6.11000000	         -0.69860486	          4.25513675	          0.60889856	
          6.12000000	         -0.69571501	          4.13074070	          0.60039393	
          6.13000000	         -0.68422217	          3.97326336	          0.59293891	
          6.14000000	         -0.66472588	          3.79876043	          0.58599995	
          6.15000000	         -0.63891534	          3.62746648	          0.57885658	
          6.16000000	         -0.60915954	          3.48115053	          0.57062818	
          6.17000000	         -0.57781573	          3.37540999	          0.56052958	
          6.18000000	         -0.54653091	          3.31319209	          0.54810373	
          6.19000000	         -0.51592570	          3.28047557	          0.53346117	
          6.20000000	         -0.48569086	          3.25022386	          0.51720865	
          6.21000000	         -0.45509303	          3.19346555	          0.50002943	
          6.22000000	         -0.42348371	          3.08914616	          0.48237894	
          6.23000000	         -0.39059829	          2.93191416	          0.46425058	
          6.24000000	         -0.35670633	          2.73344747	          0.44518410	
          6.25000000	         -0.32257310	          2.51638145	          0.42455196	
          6.26000000	         -0.28928071	          2.30547815	          0.40187392	
          6.27000000	         -0.25792687	          2.11915628	          0.37704286	
          6.28000000	         -0.22928272	          1.96355640	          0.35042847	
          6.29000000	         -0.20356293	          1.83089231	          0.32284159	
